<?xml version="1.0" encoding="utf-8"?>
<!-- Generator: Adobe Illustrator 27.2.0, SVG Export Plug-In . SVG Version: 6.00 Build 0)  -->
<svg version="1.1" id="arrow-circle-down" xmlns="http://www.w3.org/2000/svg" xmlns:xlink="http://www.w3.org/1999/xlink" x="0px"
	 y="0px" viewBox="0 0 512 512" style="enable-background:new 0 0 512 512;" xml:space="preserve">
<style type="text/css">
	.st0{opacity:0.58;fill:#FFFFFF;}
</style>
<path class="st0" d="M256,0C114.8,0,0,114.8,0,256s114.8,256,256,256s256-114.8,256-256S397.2,0,256,0z M256,490.7
	C126.6,490.7,21.3,385.4,21.3,256S126.6,21.3,256,21.3S490.7,126.6,490.7,256S385.4,490.7,256,490.7z"/>
<path class="st0" d="M373.3,245.3h-222c1.3-3.8,3.3-7.4,6.1-10.5c5.7-6.4,11.2-12.5,15.3-16.6l60.3-61.4c4.1-4.2,4.1-11-0.1-15.1
	c-4.2-4.1-11-4.1-15.1,0.1l-60.3,61.4c-4.2,4.2-10.1,10.7-16.1,17.5c-17.9,20.1-17.9,50.5,0,70.7c6,6.8,11.9,13.2,16.1,17.4
	l60.3,61.4c2.1,2.1,4.8,3.2,7.6,3.2c2.7,0,5.4-1,7.5-3.1c4.2-4.1,4.3-10.9,0.1-15.1l-60.4-61.5c-4-4-9.6-10.1-15.3-16.5
	c-2.8-3.2-4.8-6.7-6.1-10.5h222c5.9,0,10.7-4.8,10.7-10.7C384,250.1,379.2,245.3,373.3,245.3L373.3,245.3z"/>
</svg>
