<?xml version="1.0" encoding="utf-8"?>
<!-- Generator: Adobe Illustrator 27.2.0, SVG Export Plug-In . SVG Version: 6.00 Build 0)  -->
<svg version="1.1" id="arrow-circle-down" xmlns="http://www.w3.org/2000/svg" xmlns:xlink="http://www.w3.org/1999/xlink" x="0px"
	 y="0px" viewBox="0 0 512 512" style="enable-background:new 0 0 512 512;" xml:space="preserve">
<style type="text/css">
	.st0{opacity:0.59;fill:#FFFFFF;}
</style>
<path class="st0" d="M256,0C114.8,0,0,114.8,0,256s114.8,256,256,256s256-114.8,256-256S397.2,0,256,0z M256,490.7
	C126.6,490.7,21.3,385.4,21.3,256S126.6,21.3,256,21.3S490.7,126.6,490.7,256S385.4,490.7,256,490.7z M373.8,231.4
	c13.6,13.6,13.6,35.6,0,49.2L271.3,383.1L256.3,368l101.3-101.3H128v-21.3h229.6L256.3,144l15.1-15.1L373.8,231.4L373.8,231.4z"/>
</svg>
